<svg xmlns="http://www.w3.org/2000/svg" viewBox="0 0 232728 333333" shape-rendering="geometricPrecision" text-rendering="geometricPrecision" image-rendering="optimizeQuality" fill-rule="evenodd" clip-rule="evenodd"><path d="M164034 243187l10565-53684 10714 16139c23069-9260 36015-24526 37942-48029 18948 33126 7440 62822-16570 80221l10928 16461-53574-11107-1 1-3-2zM26427 211195l-9435 53515c-148 741-444 1409-890 1928-3373 4337-5485 8081-6116 11082-444 2224 0 4003 1482 5412l36916 36916c2335 2261 5078 3669 8339 4262 3558 667 7710 297 12491-1001 75 0 185-37 259-37 1816-482 4188-1074 6450-1631 9896-2409 18531-4522 26538-11786l10305-10748c111-185 259-333 407-481s1149-1149 2520-2446c7042-6895 15752-15382 10452-22832l-4114-4114c-2002 1927-4114 3818-6153 5633-1854 1631-3595 3150-5189 4744-1705 1705-4448 1705-6153 0s-1705-4448 0-6153c1594-1594 3559-3336 5597-5152 6968-6153 14974-13195 10674-19348l-4077-4077c-222-222-407-482-593-741-2335 2409-4929 4707-7450 6931-1854 1631-3596 3150-5189 4744-1705 1705-4448 1705-6152 0-1705-1705-1705-4448 0-6153 1593-1593 3557-3335 5596-5152 6969-6152 14974-13194 10675-19347l-4077-4077c-296-297-519-593-704-927l-11972 11972c-1705 1705-4448 1705-6152 0-1705-1705-1705-4448 0-6153l22441-22441c5375-5374 6597-10971 5189-15197-519-1557-1371-2928-2447-4003-554-554-1186-1048-1882-1468l-21 11c-326 164-583-177-888-500-389-186-794-349-1213-488-3733-1222-8555-353-13470 3759-63 69-131 128-206 174-531 454-1063 946-1596 1478l-46606 46607c-1705 1705-4448 1705-6153 0-1556-1556-1692-3978-406-5685l-17030-17030h-1zm29483 4516l1482-1482 30746-30746c-3178-1469-6154-3551-8773-6169-11694-11695-11694-30606 0-42301 11695-11694 30606-11694 42301 0 11695 11695 11695 30606 0 42301-99 100-200 199-300 297 232 210 460 426 682 649 952 951 1794 1996 2516 3123l38124-38124c-5848-5848-5848-15387 0-21234l-28408-28408c-5848 5848-15385 5848-21233 0l-79000 79000c5848 5847 5848 15385 0 21233l21862 21861v1zm67000-10112c-1018 1432-2215 2850-3604 4239l-4465 4465-37-111c333 186 630 408 926 704l4263 4263c221 222 444 519 630 778 4781 6560 4040 12417 779 17754 593 223 1148 556 1593 1001l4262 4263c222 222 444 519 630 778 5152 7079 3854 13269 0 18902 186 111 333 259 519 444l4263 4263c222 222 444 519 630 778 9896 13529-1890 25018-11378 34285l-2446 2446-10563 11082-334 333c-9674 8785-19274 11120-30356 13826-1854 444-3744 927-6339 1594-74 0-111 37-185 37-6005 1631-11454 2039-16345 1149-4967-890-9266-3113-12862-6634L5612 289359c-3743-3596-5003-8043-3966-13306 816-4225 3262-8895 7117-13936l9859-55819v-222c98-702 223-1477 376-2308L-2 184769 125322 59445l71871 71871-74284 74284-1-2zM97260 11108L86695 64792 75982 48652c-23069 9261-36015 24527-37941 48028-18948-33126-7440-62820 16570-80221L43685-1l53574 11106 1 1 1 1z"/></svg>