<svg xmlns="http://www.w3.org/2000/svg" viewBox="0 0 333334 199007" shape-rendering="geometricPrecision" text-rendering="geometricPrecision" image-rendering="optimizeQuality" fill-rule="evenodd" clip-rule="evenodd"><path d="M31367 0h270601c8631 0 16474 3528 22156 9210 5683 5683 9211 13526 9211 22156v136275c0 8629-3529 16472-9211 22155-5683 5682-13526 9211-22155 9211H31368c-8629 0-16473-3528-22156-9211C3530 184114 2 176272 2 167641V31366c0-8631 3528-16474 9210-22156S22738 0 31369 0zm270601 10811H31367c-5647 0-10785 2315-14513 6043s-6043 8866-6043 14513v136275c0 5646 2315 10784 6043 14512 3729 3729 8867 6044 14513 6044h270601c5645 0 10783-2315 14512-6044 3728-3729 6044-8867 6044-14511V31368c0-5645-2315-10784-6043-14513-3728-3728-8867-6043-14513-6043z" fill="gray" fill-rule="nonzero"/><path fill="#6c6bbd" d="M187552 124712h-41775V49634h41775z"/><path d="M148453 87167c0-15230 7131-28796 18235-37539-8120-6393-18369-10209-29506-10209-26368 0-47742 21377-47742 47748s21374 47748 47742 47748c11138 0 21386-3816 29506-10209-11104-8743-18235-22309-18235-37539z" fill="#eb001b"/><path d="M243894 87167c0 26371-21374 47748-47742 47748-11138 0-21386-3816-29509-10209 11107-8743 18238-22309 18238-37539s-7131-28796-18238-37539c8123-6394 18371-10209 29509-10209 26368 0 47742 21377 47742 47748zm-1457 29580v-1852h-483l-559 1272-556-1272h-486v1852h343v-1397l522 1206h355l522-1208v1400h340zm-3063 0v-1536h619v-313h-1578v313h619v1536h340z" fill="#0099df"/><path d="M221767 159309c137 0 264-24 380-76 118-52 222-122 309-209 89-87 158-191 210-313 48-118 76-246 76-383 0-136-28-264-76-382-52-119-122-224-210-313-87-88-191-158-309-207-115-52-243-76-380-76s-267 24-385 76c-122 48-228 119-316 207s-158 194-206 313c-52 118-76 246-76 382 0 137 24 265 76 383 48 121 118 225 206 313s194 158 316 209c119 52 249 76 385 76m-20130-13396c556 0 1354 106 1964 346l-850 2599c-583-240-1165-319-1724-319-1804 0-2705 1165-2705 3260v7109h-2759v-12677h2732v1539c717-1114 1752-1857 3342-1857m-36051 6657c-27-3952-2468-6657-6022-6657-3713 0-6311 2705-6311 6657 0 4028 2705 6654 6499 6654 1909 0 3658-477 5197-1776l-1354-2043c-1059 850-2413 1327-3685 1327-1776 0-3394-823-3791-3102l9414-1c27-346 54-689 54-1059m46133-4037c-567 0-1093 100-1581 298-486 200-908 480-1263 838s-635 789-838 1290c-204 501-304 1054-304 1654 0 604 100 1154 304 1654 204 501 483 932 838 1290s777 637 1263 838c489 200 1014 297 1581 297 568 0 1096-97 1582-297 489-200 914-480 1269-838 361-358 641-789 847-1290 204-501 304-1050 304-1654 0-601-100-1154-304-1654-206-501-486-932-847-1290-355-358-780-637-1269-838-486-198-1014-298-1582-298m0-2620c984 0 1894 170 2732 513 838 340 1564 810 2174 1408 613 598 1090 1306 1436 2119 346 817 519 1703 519 2659s-173 1843-519 2659c-346 813-823 1524-1436 2122-610 598-1336 1065-2174 1408-838 340-1748 510-2732 510-983 0-1894-170-2732-510-838-343-1557-810-2164-1408s-1084-1308-1430-2122c-346-817-519-1703-519-2659s173-1843 519-2659c346-813 823-1521 1430-2119s1326-1069 2164-1408c838-343 1749-513 2732-513m-71690 6657c0-2228 1460-4059 3846-4059 2280 0 3819 1752 3819 4059s-1539 4056-3819 4056c-2386 0-3846-1828-3846-4056m81523 5388v313h288c64 0 118-15 155-39 40-24 61-67 61-118s-21-91-61-115c-37-28-91-39-155-39h-288zm-30108-9207h-4508v5728c0 1272 449 2122 1830 2122 717 0 1618-240 2437-717l795 2359c-874 610-2252 983-3445 983-3263 0-4402-1752-4402-4696v-5780h-2574v-2520h2574v-3846h2784v3846h4508v2520zm-35302 2705c295-1830 1406-3078 3370-3078 1776 0 2917 1114 3209 3078h-6578zm21563-1988c-768-480-2331-1090-3950-1090-1512 0-2413 559-2413 1488 0 847 953 1087 2146 1244l1299 185c2759 401 4429 1567 4429 3794 0 2413-2122 4137-5780 4137-2070 0-3980-531-5491-1645l1299-2149c929 716 2310 1326 4220 1326 1882 0 2890-556 2890-1539 0-713-717-1114-2228-1323l-1299-185c-2838-401-4378-1673-4378-3740 0-2520 2070-4059 5279-4059 2016 0 3846 452 5170 1327l-1193 2228zm-27412 3102v-6339h-2756v1539c-878-1141-2201-1857-4004-1857-3555 0-6339 2783-6339 6657 0 3870 2784 6657 6339 6657 1803 0 3126-717 4004-1858v1539h2756v-6338zm-15539 6338v-7956c0-2996-1909-5012-4985-5039-1618-28-3290 476-4456 2256-874-1406-2255-2256-4192-2256-1351 0-2677 398-3713 1882v-1563h-2756v12677h2783v-7027c0-2201 1220-3370 3102-3370 1831 0 2759 1193 2759 3342v7055h2784v-7027c0-2201 1275-3370 3102-3370 1885 0 2787 1193 2787 3342v7055h2783zm87089-1169c149 0 265 33 346 100 82 67 121 158 121 273 0 97-31 176-97 240-64 61-158 100-276 115l383 440h-297l-355-437h-116v437h-249v-1169h540zm-76-671c179 0 343 33 498 100 158 64 292 155 410 270 115 113 206 246 273 400 67 152 100 316 100 489s-33 337-100 489c-67 151-158 285-273 397-119 115-252 207-410 273-155 67-319 100-498 100-182 0-349-33-507-100-157-67-295-158-409-273-116-112-207-246-274-397-67-152-100-316-100-489s33-337 100-489c67-155 158-288 274-400 115-115 252-206 409-270 158-67 325-100 507-100z" fill="#231f20"/></svg>